<svg width="1033" height="845" viewBox="0 0 1033 845" fill="none" xmlns="http://www.w3.org/2000/svg">
<path d="M703.5 844V750.333C703.5 700.649 683.763 653.001 648.631 617.869C613.5 582.737 565.851 563 516.167 563H188.333C138.649 563 91.0005 582.737 55.8687 617.869C20.7369 653.001 1 700.649 1 750.333V844" stroke="white" stroke-width="2" stroke-linecap="round" stroke-linejoin="round"/>
<path d="M352.25 375.667C455.712 375.667 539.584 291.795 539.584 188.333C539.584 84.872 455.712 1 352.25 1C248.789 1 164.917 84.872 164.917 188.333C164.917 291.795 248.789 375.667 352.25 375.667Z" stroke="white" stroke-width="2" stroke-linecap="round" stroke-linejoin="round"/>
<path d="M750.334 375.667L844.001 469.333L1031.33 282" stroke="white" stroke-width="2" stroke-linecap="round" stroke-linejoin="round"/>
</svg>
